<svg xmlns="http://www.w3.org/2000/svg" width="167" height="237.9" viewBox="0 0 167 237.9">
  <g id="astro.dark" transform="translate(-44.2 -13)">
    <path id="Path_1" data-name="Path 1"
      d="M163,18.9c1.9,2.4,2.9,5.7,4.9,12.2l43.3,142.3a179.08,179.08,0,0,0-51.8-17.5L131.2,60.6a3.726,3.726,0,0,0-4.6-2.5,3.9,3.9,0,0,0-2.5,2.5L96.2,155.8a180.526,180.526,0,0,0-52,17.6L87.9,31.1c2-6.5,3-9.8,4.9-12.2a15.6,15.6,0,0,1,6.5-4.8c2.9-1.1,6.3-1.1,13.1-1.1h31.1c6.8,0,10.2,0,13.1,1.1a15.941,15.941,0,0,1,6.4,4.8Z"
      fill-rule="evenodd" />
    <path id="Path_2" data-name="Path 2"
      d="M168.2,180.1c-7.1,6.1-21.4,10.3-37.8,10.3-20.2,0-37-6.3-41.5-14.7a46.962,46.962,0,0,0-2,13.9S85.8,207,97.9,219a11.374,11.374,0,0,1,11.3-11.4c10.7,0,10.7,9.4,10.7,17v.7A27.653,27.653,0,0,0,137,250.9a24.117,24.117,0,0,1-2.3-10.2c0-11,6.5-15.1,14-19.9,6-3.8,12.6-8,17.2-16.4a30.657,30.657,0,0,0,3.7-14.8,29.943,29.943,0,0,0-1.4-9.5Z"
      fill-rule="evenodd" />
  </g>
</svg>