<?xml version="1.0" standalone="no"?>
<!DOCTYPE svg PUBLIC "-//W3C//DTD SVG 20010904//EN"
 "http://www.w3.org/TR/2001/REC-SVG-20010904/DTD/svg10.dtd">
<svg version="1.0" xmlns="http://www.w3.org/2000/svg"
 width="308.000000pt" height="308.000000pt" viewBox="0 0 308.000000 308.000000"
 preserveAspectRatio="xMidYMid meet">
<metadata>
Created by potrace 1.14, written by Peter Selinger 2001-2017
</metadata>
<g transform="translate(0.000000,308.000000) scale(0.100000,-0.100000)"
fill="#000000" stroke="none">
<path d="M2085 2113 c-4 -10 -24 -65 -45 -123 -21 -58 -100 -274 -175 -480
-76 -206 -155 -423 -176 -482 l-38 -108 102 0 102 0 83 233 c46 127 105 291
132 362 26 72 56 154 66 183 10 28 23 52 27 52 5 0 39 -14 75 -31 37 -17 137
-62 222 -101 85 -39 160 -74 165 -78 10 -7 120 -50 130 -50 3 0 17 0 32 0 37
0 26 -7 -24 -15 -24 -3 -127 -41 -230 -83 l-188 -77 -3 -88 c-1 -48 1 -87 6
-87 8 0 181 73 297 125 17 7 84 37 150 65 66 29 125 56 130 60 6 5 10 47 9 97
-2 105 -2 103 -13 103 -6 0 -49 18 -98 41 -48 23 -126 58 -173 79 -47 21 -123
56 -170 77 -47 22 -123 57 -170 79 -47 21 -86 39 -88 40 -4 3 9 48 42 142 14
41 26 76 26 78 0 2 -45 4 -99 4 -85 0 -100 -2 -106 -17z"/>
<path d="M870 1900 l0 -90 169 -2 169 -3 -83 -135 c-46 -74 -88 -140 -94 -147
-6 -7 -11 -14 -11 -17 0 -5 -84 -143 -131 -215 -27 -41 -29 -52 -29 -138 l0
-93 290 0 290 0 0 90 0 90 -180 2 -179 3 139 220 c77 121 143 227 147 235 3 8
19 34 34 56 26 39 28 49 28 138 l0 96 -280 0 -279 0 0 -90z"/>
<path d="M535 1774 c-66 -29 -131 -58 -145 -63 -14 -6 -86 -37 -160 -69 l-135
-59 0 -98 0 -98 100 -43 c120 -51 129 -55 320 -139 83 -36 153 -65 157 -65 4
0 7 40 7 88 l0 88 -107 43 c-59 24 -120 49 -137 56 -107 47 -132 55 -176 61
-57 8 -58 11 -3 19 21 3 126 41 231 83 l193 77 0 88 c0 63 -3 87 -12 86 -7 -1
-67 -25 -133 -55z"/>
</g>
</svg>
