<svg width="256" height="256" viewBox="0 0 256 256" fill="none" xmlns="http://www.w3.org/2000/svg">
<rect width="256" height="256" fill="#0F0F0F"/>
<path d="M69.58 154.786L30.02 136.898V124.6L69.58 106.626V118.322L45.844 128.728C44.6973 129.244 43.4933 129.674 42.232 130.018C40.9707 130.362 39.9673 130.591 39.222 130.706C39.9673 130.821 40.9707 131.05 42.232 131.394C43.4933 131.681 44.6973 132.082 45.844 132.598L69.58 143.004V154.786ZM82.0164 159V147.39L105.064 107.83H82.7044V96.22H119.77V107.83L96.6364 147.39H120.716V159H82.0164ZM134.839 168.46L164.509 87.62H177.839L172.249 102.756L220.409 124.514V136.812L180.849 154.786V143.09L204.585 132.598C205.789 132.082 207.137 131.681 208.627 131.394C210.175 131.05 211.408 130.849 212.325 130.792C211.408 130.677 210.175 130.477 208.627 130.19C207.137 129.846 205.789 129.416 204.585 128.9L168.551 112.732L148.169 168.46H134.839Z" fill="white"/>
</svg>
