<svg width="256" height="256" viewBox="0 0 256 256" fill="none" xmlns="http://www.w3.org/2000/svg">
<rect width="256" height="256" fill="black"/>
<path d="M68.64 155.688L28.16 137.384V124.8L68.64 106.408V118.376L44.352 129.024C43.1787 129.552 41.9467 129.992 40.656 130.344C39.3653 130.696 38.3387 130.931 37.576 131.048C38.3387 131.165 39.3653 131.4 40.656 131.752C41.9467 132.045 43.1787 132.456 44.352 132.984L68.64 143.632V155.688ZM81.3656 160V148.12L104.95 107.64H82.0696V95.76H119.998V107.64L96.3256 148.12H120.966V160H81.3656ZM135.417 169.68L165.777 86.96H179.417L173.697 102.448L222.977 124.712V137.296L182.497 155.688V143.72L206.785 132.984C208.017 132.456 209.396 132.045 210.921 131.752C212.505 131.4 213.766 131.195 214.705 131.136C213.766 131.019 212.505 130.813 210.921 130.52C209.396 130.168 208.017 129.728 206.785 129.2L169.913 112.656L149.057 169.68H135.417Z" fill="white"/>
</svg>
